<mxfile host="Electron" modified="2023-07-10T02:22:47.526Z" agent="Mozilla/5.0 (Windows NT 10.0; Win64; x64) AppleWebKit/537.36 (KHTML, like Gecko) draw.io/21.5.0 Chrome/112.0.5615.204 Electron/24.5.1 Safari/537.36" etag="r_mYmiIEm8YvCfrDWEcT" version="21.5.0" type="device">
  <diagram name="第 1 页" id="JqoffPR_x_UBBWckZMup">
    <mxGraphModel dx="793" dy="1197" grid="1" gridSize="10" guides="1" tooltips="1" connect="1" arrows="1" fold="1" page="1" pageScale="1" pageWidth="1169" pageHeight="827" math="0" shadow="0">
      <root>
        <mxCell id="0" />
        <mxCell id="1" parent="0" />
        <mxCell id="7v3iK9AoGuIjmiTQBfwU-1" value="" style="shape=trapezoid;perimeter=trapezoidPerimeter;whiteSpace=wrap;html=1;fixedSize=1;rotation=90;size=10;" parent="1" vertex="1">
          <mxGeometry x="215" y="190" width="60" height="10" as="geometry" />
        </mxCell>
        <mxCell id="7v3iK9AoGuIjmiTQBfwU-2" value="" style="shape=trapezoid;perimeter=trapezoidPerimeter;whiteSpace=wrap;html=1;fixedSize=1;rotation=90;size=10;" parent="1" vertex="1">
          <mxGeometry x="215" y="310" width="60" height="10" as="geometry" />
        </mxCell>
        <mxCell id="7v3iK9AoGuIjmiTQBfwU-3" value="" style="shape=trapezoid;perimeter=trapezoidPerimeter;whiteSpace=wrap;html=1;fixedSize=1;rotation=90;size=10;" parent="1" vertex="1">
          <mxGeometry x="215" y="430" width="60" height="10" as="geometry" />
        </mxCell>
        <mxCell id="7v3iK9AoGuIjmiTQBfwU-4" value="" style="shape=trapezoid;perimeter=trapezoidPerimeter;whiteSpace=wrap;html=1;fixedSize=1;rotation=90;size=10;" parent="1" vertex="1">
          <mxGeometry x="215" y="550" width="60" height="10" as="geometry" />
        </mxCell>
        <mxCell id="7v3iK9AoGuIjmiTQBfwU-5" value="" style="endArrow=none;html=1;rounded=0;entryX=0.25;entryY=1;entryDx=0;entryDy=0;" parent="1" target="7v3iK9AoGuIjmiTQBfwU-1" edge="1">
          <mxGeometry width="50" height="50" relative="1" as="geometry">
            <mxPoint x="145" y="180" as="sourcePoint" />
            <mxPoint x="245" y="180" as="targetPoint" />
          </mxGeometry>
        </mxCell>
        <mxCell id="7v3iK9AoGuIjmiTQBfwU-6" value="&lt;font style=&quot;font-size: 8px;&quot;&gt;opcode0_opcode_o[31:0]&lt;/font&gt;" style="text;strokeColor=none;align=center;fillColor=none;html=1;verticalAlign=middle;whiteSpace=wrap;rounded=0;" parent="1" vertex="1">
          <mxGeometry x="145" y="167" width="90" height="10" as="geometry" />
        </mxCell>
        <mxCell id="7v3iK9AoGuIjmiTQBfwU-7" value="" style="endArrow=none;html=1;rounded=0;entryX=0.25;entryY=1;entryDx=0;entryDy=0;exitX=0.997;exitY=0.113;exitDx=0;exitDy=0;exitPerimeter=0;" parent="1" edge="1">
          <mxGeometry width="50" height="50" relative="1" as="geometry">
            <mxPoint x="100" y="210" as="sourcePoint" />
            <mxPoint x="240" y="210" as="targetPoint" />
          </mxGeometry>
        </mxCell>
        <mxCell id="7v3iK9AoGuIjmiTQBfwU-8" value="&lt;font style=&quot;font-size: 8px;&quot;&gt;opcode1_opcode_o[31:0]&lt;/font&gt;" style="text;strokeColor=none;align=center;fillColor=none;html=1;verticalAlign=middle;whiteSpace=wrap;rounded=0;" parent="1" vertex="1">
          <mxGeometry x="145" y="198" width="91" height="10" as="geometry" />
        </mxCell>
        <mxCell id="7v3iK9AoGuIjmiTQBfwU-9" value="" style="endArrow=none;html=1;rounded=0;entryX=0.25;entryY=1;entryDx=0;entryDy=0;" parent="1" edge="1">
          <mxGeometry width="50" height="50" relative="1" as="geometry">
            <mxPoint x="145" y="300" as="sourcePoint" />
            <mxPoint x="240" y="300" as="targetPoint" />
          </mxGeometry>
        </mxCell>
        <mxCell id="7v3iK9AoGuIjmiTQBfwU-10" value="&lt;font style=&quot;font-size: 8px;&quot;&gt;opcode0_pc_o[31:0]&lt;/font&gt;" style="text;strokeColor=none;align=center;fillColor=none;html=1;verticalAlign=middle;whiteSpace=wrap;rounded=0;" parent="1" vertex="1">
          <mxGeometry x="160" y="287" width="75" height="10" as="geometry" />
        </mxCell>
        <mxCell id="7v3iK9AoGuIjmiTQBfwU-11" value="" style="endArrow=none;html=1;rounded=0;entryX=0.25;entryY=1;entryDx=0;entryDy=0;exitX=0.997;exitY=0.113;exitDx=0;exitDy=0;exitPerimeter=0;" parent="1" edge="1">
          <mxGeometry width="50" height="50" relative="1" as="geometry">
            <mxPoint x="100" y="330" as="sourcePoint" />
            <mxPoint x="240" y="330" as="targetPoint" />
          </mxGeometry>
        </mxCell>
        <mxCell id="7v3iK9AoGuIjmiTQBfwU-12" value="&lt;font style=&quot;font-size: 8px;&quot;&gt;opcode0_pc_o[31:0]&lt;/font&gt;" style="text;strokeColor=none;align=center;fillColor=none;html=1;verticalAlign=middle;whiteSpace=wrap;rounded=0;" parent="1" vertex="1">
          <mxGeometry x="159" y="318" width="80" height="10" as="geometry" />
        </mxCell>
        <mxCell id="7v3iK9AoGuIjmiTQBfwU-13" value="" style="endArrow=none;html=1;rounded=0;entryX=0.25;entryY=1;entryDx=0;entryDy=0;" parent="1" edge="1">
          <mxGeometry width="50" height="50" relative="1" as="geometry">
            <mxPoint x="145" y="420" as="sourcePoint" />
            <mxPoint x="240" y="420" as="targetPoint" />
          </mxGeometry>
        </mxCell>
        <mxCell id="7v3iK9AoGuIjmiTQBfwU-14" value="&lt;font style=&quot;font-size: 8px;&quot;&gt;opcode0_rd_idx_o[4:0]&lt;/font&gt;" style="text;strokeColor=none;align=center;fillColor=none;html=1;verticalAlign=middle;whiteSpace=wrap;rounded=0;" parent="1" vertex="1">
          <mxGeometry x="156" y="407" width="75" height="10" as="geometry" />
        </mxCell>
        <mxCell id="7v3iK9AoGuIjmiTQBfwU-15" value="" style="endArrow=none;html=1;rounded=0;entryX=0.25;entryY=1;entryDx=0;entryDy=0;exitX=0.997;exitY=0.113;exitDx=0;exitDy=0;exitPerimeter=0;" parent="1" edge="1">
          <mxGeometry width="50" height="50" relative="1" as="geometry">
            <mxPoint x="100" y="450" as="sourcePoint" />
            <mxPoint x="240" y="450" as="targetPoint" />
          </mxGeometry>
        </mxCell>
        <mxCell id="7v3iK9AoGuIjmiTQBfwU-16" value="&lt;font style=&quot;font-size: 8px;&quot;&gt;opcode1_rd_idx_o[4:0]&lt;/font&gt;" style="text;strokeColor=none;align=center;fillColor=none;html=1;verticalAlign=middle;whiteSpace=wrap;rounded=0;" parent="1" vertex="1">
          <mxGeometry x="151" y="438" width="85" height="10" as="geometry" />
        </mxCell>
        <mxCell id="7v3iK9AoGuIjmiTQBfwU-17" value="" style="endArrow=none;html=1;rounded=0;entryX=0.25;entryY=1;entryDx=0;entryDy=0;" parent="1" edge="1">
          <mxGeometry width="50" height="50" relative="1" as="geometry">
            <mxPoint x="145" y="539" as="sourcePoint" />
            <mxPoint x="240" y="539" as="targetPoint" />
          </mxGeometry>
        </mxCell>
        <mxCell id="7v3iK9AoGuIjmiTQBfwU-18" value="&lt;font style=&quot;font-size: 8px;&quot;&gt;opcode0_ra_idx_o[31:0]&lt;/font&gt;" style="text;strokeColor=none;align=center;fillColor=none;html=1;verticalAlign=middle;whiteSpace=wrap;rounded=0;" parent="1" vertex="1">
          <mxGeometry x="145" y="527" width="90" height="10" as="geometry" />
        </mxCell>
        <mxCell id="7v3iK9AoGuIjmiTQBfwU-19" value="" style="endArrow=none;html=1;rounded=0;entryX=0.25;entryY=1;entryDx=0;entryDy=0;exitX=0.997;exitY=0.113;exitDx=0;exitDy=0;exitPerimeter=0;" parent="1" edge="1">
          <mxGeometry width="50" height="50" relative="1" as="geometry">
            <mxPoint x="100" y="569" as="sourcePoint" />
            <mxPoint x="240" y="569" as="targetPoint" />
          </mxGeometry>
        </mxCell>
        <mxCell id="7v3iK9AoGuIjmiTQBfwU-20" value="&lt;font style=&quot;font-size: 8px;&quot;&gt;opcode1_ra_idx_o[31:0]&lt;/font&gt;" style="text;strokeColor=none;align=center;fillColor=none;html=1;verticalAlign=middle;whiteSpace=wrap;rounded=0;" parent="1" vertex="1">
          <mxGeometry x="142" y="557" width="95" height="10" as="geometry" />
        </mxCell>
        <mxCell id="7v3iK9AoGuIjmiTQBfwU-21" value="" style="endArrow=none;html=1;rounded=0;" parent="1" edge="1">
          <mxGeometry width="50" height="50" relative="1" as="geometry">
            <mxPoint x="245" y="240" as="sourcePoint" />
            <mxPoint x="244.94" y="220" as="targetPoint" />
          </mxGeometry>
        </mxCell>
        <mxCell id="7v3iK9AoGuIjmiTQBfwU-22" value="&lt;font style=&quot;font-size: 8px;&quot;&gt;pipe1_mux_lsu_r&lt;/font&gt;" style="text;strokeColor=none;align=center;fillColor=none;html=1;verticalAlign=middle;whiteSpace=wrap;rounded=0;" parent="1" vertex="1">
          <mxGeometry x="210" y="240" width="65" height="10" as="geometry" />
        </mxCell>
        <mxCell id="7v3iK9AoGuIjmiTQBfwU-23" value="" style="endArrow=none;html=1;rounded=0;" parent="1" edge="1">
          <mxGeometry width="50" height="50" relative="1" as="geometry">
            <mxPoint x="245" y="360" as="sourcePoint" />
            <mxPoint x="244.94" y="340" as="targetPoint" />
          </mxGeometry>
        </mxCell>
        <mxCell id="7v3iK9AoGuIjmiTQBfwU-24" value="&lt;font style=&quot;font-size: 8px;&quot;&gt;pipe1_mux_lsu_r&lt;/font&gt;" style="text;strokeColor=none;align=center;fillColor=none;html=1;verticalAlign=middle;whiteSpace=wrap;rounded=0;" parent="1" vertex="1">
          <mxGeometry x="210" y="360" width="55" height="10" as="geometry" />
        </mxCell>
        <mxCell id="7v3iK9AoGuIjmiTQBfwU-25" value="" style="endArrow=none;html=1;rounded=0;" parent="1" edge="1">
          <mxGeometry width="50" height="50" relative="1" as="geometry">
            <mxPoint x="245" y="480" as="sourcePoint" />
            <mxPoint x="244.94" y="460" as="targetPoint" />
          </mxGeometry>
        </mxCell>
        <mxCell id="7v3iK9AoGuIjmiTQBfwU-26" value="&lt;font style=&quot;font-size: 8px;&quot;&gt;pipe1_mux_lsu_r&lt;/font&gt;" style="text;strokeColor=none;align=center;fillColor=none;html=1;verticalAlign=middle;whiteSpace=wrap;rounded=0;" parent="1" vertex="1">
          <mxGeometry x="212.5" y="480" width="65" height="10" as="geometry" />
        </mxCell>
        <mxCell id="7v3iK9AoGuIjmiTQBfwU-27" value="" style="endArrow=none;html=1;rounded=0;" parent="1" edge="1">
          <mxGeometry width="50" height="50" relative="1" as="geometry">
            <mxPoint x="245" y="600" as="sourcePoint" />
            <mxPoint x="244.94" y="580" as="targetPoint" />
          </mxGeometry>
        </mxCell>
        <mxCell id="7v3iK9AoGuIjmiTQBfwU-28" value="&lt;font style=&quot;font-size: 8px;&quot;&gt;pipe1_mux_lsu_r&lt;/font&gt;" style="text;strokeColor=none;align=center;fillColor=none;html=1;verticalAlign=middle;whiteSpace=wrap;rounded=0;" parent="1" vertex="1">
          <mxGeometry x="205" y="600" width="65" height="10" as="geometry" />
        </mxCell>
        <mxCell id="a352X_GTnDsFa2P5jaI_-1" value="" style="endArrow=classic;html=1;rounded=0;endFill=1;" edge="1" parent="1">
          <mxGeometry width="50" height="50" relative="1" as="geometry">
            <mxPoint x="250" y="200" as="sourcePoint" />
            <mxPoint x="380" y="200" as="targetPoint" />
          </mxGeometry>
        </mxCell>
        <mxCell id="a352X_GTnDsFa2P5jaI_-2" value="&lt;font style=&quot;font-size: 8px;&quot;&gt;mul_opcode_opcode_o[31:0]&lt;/font&gt;" style="text;strokeColor=none;align=center;fillColor=none;html=1;verticalAlign=middle;whiteSpace=wrap;rounded=0;" vertex="1" parent="1">
          <mxGeometry x="253" y="187" width="107" height="10" as="geometry" />
        </mxCell>
        <mxCell id="a352X_GTnDsFa2P5jaI_-3" value="" style="endArrow=classic;html=1;rounded=0;endFill=1;" edge="1" parent="1">
          <mxGeometry width="50" height="50" relative="1" as="geometry">
            <mxPoint x="250" y="319.52" as="sourcePoint" />
            <mxPoint x="380" y="319.52" as="targetPoint" />
          </mxGeometry>
        </mxCell>
        <mxCell id="a352X_GTnDsFa2P5jaI_-4" value="&lt;font style=&quot;font-size: 8px;&quot;&gt;mul_opcode_pc_o[31:0]&lt;/font&gt;" style="text;strokeColor=none;align=center;fillColor=none;html=1;verticalAlign=middle;whiteSpace=wrap;rounded=0;" vertex="1" parent="1">
          <mxGeometry x="253" y="308" width="87" height="10" as="geometry" />
        </mxCell>
        <mxCell id="a352X_GTnDsFa2P5jaI_-5" value="" style="endArrow=classic;html=1;rounded=0;endFill=1;" edge="1" parent="1">
          <mxGeometry width="50" height="50" relative="1" as="geometry">
            <mxPoint x="250" y="439.52" as="sourcePoint" />
            <mxPoint x="380" y="439.52" as="targetPoint" />
          </mxGeometry>
        </mxCell>
        <mxCell id="a352X_GTnDsFa2P5jaI_-6" value="&lt;font style=&quot;font-size: 8px;&quot;&gt;mul_opcode_rd_idx_o[31:0]&lt;/font&gt;" style="text;strokeColor=none;align=center;fillColor=none;html=1;verticalAlign=middle;whiteSpace=wrap;rounded=0;" vertex="1" parent="1">
          <mxGeometry x="253" y="428" width="97" height="10" as="geometry" />
        </mxCell>
        <mxCell id="a352X_GTnDsFa2P5jaI_-7" value="" style="endArrow=classic;html=1;rounded=0;endFill=1;" edge="1" parent="1">
          <mxGeometry width="50" height="50" relative="1" as="geometry">
            <mxPoint x="250" y="560.52" as="sourcePoint" />
            <mxPoint x="380" y="560.52" as="targetPoint" />
          </mxGeometry>
        </mxCell>
        <mxCell id="a352X_GTnDsFa2P5jaI_-8" value="&lt;font style=&quot;font-size: 8px;&quot;&gt;mul_opcode_ra_idx_o[31:0]&lt;/font&gt;" style="text;strokeColor=none;align=center;fillColor=none;html=1;verticalAlign=middle;whiteSpace=wrap;rounded=0;" vertex="1" parent="1">
          <mxGeometry x="253" y="549" width="97" height="10" as="geometry" />
        </mxCell>
        <mxCell id="a352X_GTnDsFa2P5jaI_-9" value="" style="shape=trapezoid;perimeter=trapezoidPerimeter;whiteSpace=wrap;html=1;fixedSize=1;rotation=90;size=10;" vertex="1" parent="1">
          <mxGeometry x="611" y="190" width="60" height="10" as="geometry" />
        </mxCell>
        <mxCell id="a352X_GTnDsFa2P5jaI_-10" value="" style="shape=trapezoid;perimeter=trapezoidPerimeter;whiteSpace=wrap;html=1;fixedSize=1;rotation=90;size=10;" vertex="1" parent="1">
          <mxGeometry x="611" y="310" width="60" height="10" as="geometry" />
        </mxCell>
        <mxCell id="a352X_GTnDsFa2P5jaI_-11" value="" style="shape=trapezoid;perimeter=trapezoidPerimeter;whiteSpace=wrap;html=1;fixedSize=1;rotation=90;size=10;" vertex="1" parent="1">
          <mxGeometry x="611" y="430" width="60" height="10" as="geometry" />
        </mxCell>
        <mxCell id="a352X_GTnDsFa2P5jaI_-12" value="" style="endArrow=none;html=1;rounded=0;entryX=0.25;entryY=1;entryDx=0;entryDy=0;" edge="1" parent="1" target="a352X_GTnDsFa2P5jaI_-9">
          <mxGeometry width="50" height="50" relative="1" as="geometry">
            <mxPoint x="541" y="180" as="sourcePoint" />
            <mxPoint x="641" y="180" as="targetPoint" />
          </mxGeometry>
        </mxCell>
        <mxCell id="a352X_GTnDsFa2P5jaI_-13" value="&lt;font style=&quot;font-size: 8px;&quot;&gt;opcode0_ra_operand_o[31:0]&lt;/font&gt;" style="text;strokeColor=none;align=center;fillColor=none;html=1;verticalAlign=middle;whiteSpace=wrap;rounded=0;" vertex="1" parent="1">
          <mxGeometry x="536" y="167" width="90" height="10" as="geometry" />
        </mxCell>
        <mxCell id="a352X_GTnDsFa2P5jaI_-14" value="" style="endArrow=none;html=1;rounded=0;entryX=0.25;entryY=1;entryDx=0;entryDy=0;exitX=0.997;exitY=0.113;exitDx=0;exitDy=0;exitPerimeter=0;" edge="1" parent="1">
          <mxGeometry width="50" height="50" relative="1" as="geometry">
            <mxPoint x="496" y="210" as="sourcePoint" />
            <mxPoint x="636" y="210" as="targetPoint" />
          </mxGeometry>
        </mxCell>
        <mxCell id="a352X_GTnDsFa2P5jaI_-15" value="&lt;font style=&quot;font-size: 8px;&quot;&gt;opcode1_ra_operand_o[31:0]&lt;/font&gt;" style="text;strokeColor=none;align=center;fillColor=none;html=1;verticalAlign=middle;whiteSpace=wrap;rounded=0;" vertex="1" parent="1">
          <mxGeometry x="530" y="198" width="102" height="10" as="geometry" />
        </mxCell>
        <mxCell id="a352X_GTnDsFa2P5jaI_-16" value="" style="endArrow=none;html=1;rounded=0;entryX=0.25;entryY=1;entryDx=0;entryDy=0;" edge="1" parent="1">
          <mxGeometry width="50" height="50" relative="1" as="geometry">
            <mxPoint x="541" y="300" as="sourcePoint" />
            <mxPoint x="636" y="300" as="targetPoint" />
          </mxGeometry>
        </mxCell>
        <mxCell id="a352X_GTnDsFa2P5jaI_-17" value="&lt;font style=&quot;font-size: 8px;&quot;&gt;opcode0_rb_operand_o[31:0]&lt;/font&gt;" style="text;strokeColor=none;align=center;fillColor=none;html=1;verticalAlign=middle;whiteSpace=wrap;rounded=0;" vertex="1" parent="1">
          <mxGeometry x="530" y="287" width="101" height="10" as="geometry" />
        </mxCell>
        <mxCell id="a352X_GTnDsFa2P5jaI_-18" value="" style="endArrow=none;html=1;rounded=0;entryX=0.25;entryY=1;entryDx=0;entryDy=0;exitX=0.997;exitY=0.113;exitDx=0;exitDy=0;exitPerimeter=0;" edge="1" parent="1">
          <mxGeometry width="50" height="50" relative="1" as="geometry">
            <mxPoint x="496" y="330" as="sourcePoint" />
            <mxPoint x="636" y="330" as="targetPoint" />
          </mxGeometry>
        </mxCell>
        <mxCell id="a352X_GTnDsFa2P5jaI_-19" value="&lt;font style=&quot;font-size: 8px;&quot;&gt;opcode1_rb_operand_o[31:0]&lt;/font&gt;" style="text;strokeColor=none;align=center;fillColor=none;html=1;verticalAlign=middle;whiteSpace=wrap;rounded=0;" vertex="1" parent="1">
          <mxGeometry x="527" y="318" width="105" height="10" as="geometry" />
        </mxCell>
        <mxCell id="a352X_GTnDsFa2P5jaI_-20" value="" style="endArrow=none;html=1;rounded=0;entryX=0.25;entryY=1;entryDx=0;entryDy=0;" edge="1" parent="1">
          <mxGeometry width="50" height="50" relative="1" as="geometry">
            <mxPoint x="541" y="420" as="sourcePoint" />
            <mxPoint x="636" y="420" as="targetPoint" />
          </mxGeometry>
        </mxCell>
        <mxCell id="a352X_GTnDsFa2P5jaI_-21" value="&lt;font style=&quot;font-size: 8px;&quot;&gt;opcode0_rb_idx_o[4:0]&lt;/font&gt;" style="text;strokeColor=none;align=center;fillColor=none;html=1;verticalAlign=middle;whiteSpace=wrap;rounded=0;" vertex="1" parent="1">
          <mxGeometry x="552" y="407" width="75" height="10" as="geometry" />
        </mxCell>
        <mxCell id="a352X_GTnDsFa2P5jaI_-22" value="" style="endArrow=none;html=1;rounded=0;entryX=0.25;entryY=1;entryDx=0;entryDy=0;exitX=0.997;exitY=0.113;exitDx=0;exitDy=0;exitPerimeter=0;" edge="1" parent="1">
          <mxGeometry width="50" height="50" relative="1" as="geometry">
            <mxPoint x="496" y="450" as="sourcePoint" />
            <mxPoint x="636" y="450" as="targetPoint" />
          </mxGeometry>
        </mxCell>
        <mxCell id="a352X_GTnDsFa2P5jaI_-23" value="&lt;font style=&quot;font-size: 8px;&quot;&gt;opcode1_rb_idx_o[4:0]&lt;/font&gt;" style="text;strokeColor=none;align=center;fillColor=none;html=1;verticalAlign=middle;whiteSpace=wrap;rounded=0;" vertex="1" parent="1">
          <mxGeometry x="547" y="438" width="85" height="10" as="geometry" />
        </mxCell>
        <mxCell id="a352X_GTnDsFa2P5jaI_-24" value="" style="endArrow=none;html=1;rounded=0;" edge="1" parent="1">
          <mxGeometry width="50" height="50" relative="1" as="geometry">
            <mxPoint x="641" y="240" as="sourcePoint" />
            <mxPoint x="640.94" y="220" as="targetPoint" />
          </mxGeometry>
        </mxCell>
        <mxCell id="a352X_GTnDsFa2P5jaI_-25" value="&lt;font style=&quot;font-size: 8px;&quot;&gt;pipe1_mux_lsu_r&lt;/font&gt;" style="text;strokeColor=none;align=center;fillColor=none;html=1;verticalAlign=middle;whiteSpace=wrap;rounded=0;" vertex="1" parent="1">
          <mxGeometry x="606" y="240" width="65" height="10" as="geometry" />
        </mxCell>
        <mxCell id="a352X_GTnDsFa2P5jaI_-26" value="" style="endArrow=none;html=1;rounded=0;" edge="1" parent="1">
          <mxGeometry width="50" height="50" relative="1" as="geometry">
            <mxPoint x="641" y="360" as="sourcePoint" />
            <mxPoint x="640.94" y="340" as="targetPoint" />
          </mxGeometry>
        </mxCell>
        <mxCell id="a352X_GTnDsFa2P5jaI_-27" value="&lt;font style=&quot;font-size: 8px;&quot;&gt;pipe1_mux_lsu_r&lt;/font&gt;" style="text;strokeColor=none;align=center;fillColor=none;html=1;verticalAlign=middle;whiteSpace=wrap;rounded=0;" vertex="1" parent="1">
          <mxGeometry x="606" y="360" width="55" height="10" as="geometry" />
        </mxCell>
        <mxCell id="a352X_GTnDsFa2P5jaI_-28" value="" style="endArrow=none;html=1;rounded=0;" edge="1" parent="1">
          <mxGeometry width="50" height="50" relative="1" as="geometry">
            <mxPoint x="641" y="480" as="sourcePoint" />
            <mxPoint x="640.94" y="460" as="targetPoint" />
          </mxGeometry>
        </mxCell>
        <mxCell id="a352X_GTnDsFa2P5jaI_-29" value="&lt;font style=&quot;font-size: 8px;&quot;&gt;pipe1_mux_lsu_r&lt;/font&gt;" style="text;strokeColor=none;align=center;fillColor=none;html=1;verticalAlign=middle;whiteSpace=wrap;rounded=0;" vertex="1" parent="1">
          <mxGeometry x="608.5" y="480" width="65" height="10" as="geometry" />
        </mxCell>
        <mxCell id="a352X_GTnDsFa2P5jaI_-30" value="" style="endArrow=classic;html=1;rounded=0;endFill=1;" edge="1" parent="1">
          <mxGeometry width="50" height="50" relative="1" as="geometry">
            <mxPoint x="646" y="200" as="sourcePoint" />
            <mxPoint x="800" y="200" as="targetPoint" />
          </mxGeometry>
        </mxCell>
        <mxCell id="a352X_GTnDsFa2P5jaI_-31" value="&lt;font style=&quot;font-size: 8px;&quot;&gt;mul_opcode_ra_operand_o[31:0]&lt;/font&gt;" style="text;strokeColor=none;align=center;fillColor=none;html=1;verticalAlign=middle;whiteSpace=wrap;rounded=0;" vertex="1" parent="1">
          <mxGeometry x="655" y="187" width="107" height="10" as="geometry" />
        </mxCell>
        <mxCell id="a352X_GTnDsFa2P5jaI_-32" value="" style="endArrow=classic;html=1;rounded=0;endFill=1;" edge="1" parent="1">
          <mxGeometry width="50" height="50" relative="1" as="geometry">
            <mxPoint x="646" y="319.52" as="sourcePoint" />
            <mxPoint x="800" y="320" as="targetPoint" />
          </mxGeometry>
        </mxCell>
        <mxCell id="a352X_GTnDsFa2P5jaI_-33" value="&lt;font style=&quot;font-size: 8px;&quot;&gt;mul_opcode_rb_operand_o[31:0]&lt;/font&gt;" style="text;strokeColor=none;align=center;fillColor=none;html=1;verticalAlign=middle;whiteSpace=wrap;rounded=0;" vertex="1" parent="1">
          <mxGeometry x="647" y="308" width="121" height="10" as="geometry" />
        </mxCell>
        <mxCell id="a352X_GTnDsFa2P5jaI_-34" value="" style="endArrow=classic;html=1;rounded=0;endFill=1;" edge="1" parent="1">
          <mxGeometry width="50" height="50" relative="1" as="geometry">
            <mxPoint x="646" y="439.52" as="sourcePoint" />
            <mxPoint x="800" y="440" as="targetPoint" />
          </mxGeometry>
        </mxCell>
        <mxCell id="a352X_GTnDsFa2P5jaI_-35" value="&lt;font style=&quot;font-size: 8px;&quot;&gt;mul_opcode_rb _idx_o[4:0]&lt;/font&gt;" style="text;strokeColor=none;align=center;fillColor=none;html=1;verticalAlign=middle;whiteSpace=wrap;rounded=0;" vertex="1" parent="1">
          <mxGeometry x="649" y="428" width="111" height="10" as="geometry" />
        </mxCell>
      </root>
    </mxGraphModel>
  </diagram>
</mxfile>
